<?xml version="1.0" encoding="us-ascii" standalone="no"?><svg xmlns="http://www.w3.org/2000/svg" xmlns:xlink="http://www.w3.org/1999/xlink" contentStyleType="text/css" height="217px" preserveAspectRatio="none" style="width:392px;height:217px;background:#FFFFFF;" version="1.1" viewBox="0 0 392 217" width="392px" zoomAndPan="magnify"><defs/><g><!--class Events--><g id="elem_Events"><rect codeLine="1" fill="#F1F1F1" height="196.9688" id="Events" rx="2.5" ry="2.5" style="stroke:#181818;stroke-width:0.5;" width="371" x="7" y="7"/><ellipse cx="166.75" cy="23" fill="#ADD1B2" rx="11" ry="11" style="stroke:#181818;stroke-width:1.0;"/><path d="M169.5156,18.875 Q169.6719,18.6563 169.8594,18.5469 Q170.0469,18.4375 170.2656,18.4375 Q170.6406,18.4375 170.875,18.7031 Q171.1094,18.9531 171.1094,19.5625 L171.1094,21.0156 Q171.1094,21.625 170.875,21.8906 Q170.6406,22.1563 170.2656,22.1563 Q169.9219,22.1563 169.7188,21.9531 Q169.5156,21.7656 169.4063,21.25 Q169.3594,20.8906 169.1719,20.7031 Q168.8438,20.3281 168.2344,20.1094 Q167.625,19.8906 167,19.8906 Q166.2344,19.8906 165.5938,20.2188 Q164.9688,20.5469 164.4688,21.2969 Q163.9844,22.0469 163.9844,23.0781 L163.9844,24.1719 Q163.9844,25.4063 164.875,26.2344 Q165.7656,27.0469 167.3594,27.0469 Q168.2969,27.0469 168.9531,26.7969 Q169.3438,26.6406 169.7656,26.2031 Q170.0313,25.9375 170.1719,25.8594 Q170.3281,25.7813 170.5313,25.7813 Q170.8594,25.7813 171.1094,26.0469 Q171.375,26.2969 171.375,26.6406 Q171.375,26.9844 171.0313,27.3906 Q170.5313,27.9688 169.7344,28.2969 Q168.6563,28.75 167.3594,28.75 Q165.8438,28.75 164.6406,28.125 Q163.6563,27.625 162.9688,26.5625 Q162.2813,25.4844 162.2813,24.2031 L162.2813,23.0469 Q162.2813,21.7188 162.8906,20.5781 Q163.5156,19.4219 164.6094,18.8125 Q165.7031,18.1875 166.9375,18.1875 Q167.6719,18.1875 168.3125,18.3594 Q168.9688,18.5156 169.5156,18.875 Z " fill="#000000"/><text fill="#000000" font-family="sans-serif" font-size="14" lengthAdjust="spacing" textLength="43" x="187.25" y="28.7969">Events</text><line style="stroke:#181818;stroke-width:0.5;" x1="8" x2="377" y1="39" y2="39"/><line style="stroke:#181818;stroke-width:0.5;" x1="8" x2="377" y1="47" y2="47"/><rect fill="#F24D5C" height="6" style="stroke:#C82930;stroke-width:1.0;" width="6" x="15" y="58.8105"/><text fill="#000000" font-family="sans-serif" font-size="14" lengthAdjust="spacing" textLength="149" x="27" y="66.1074">AllEnemiesKilledEvent()</text><rect fill="#F24D5C" height="6" style="stroke:#C82930;stroke-width:1.0;" width="6" x="15" y="77.4316"/><text fill="#000000" font-family="sans-serif" font-size="14" lengthAdjust="spacing" textLength="275" x="27" y="84.7285">EnemyCountChangedEvent(_newCount:int)</text><rect fill="#F24D5C" height="6" style="stroke:#C82930;stroke-width:1.0;" width="6" x="15" y="96.0527"/><text fill="#000000" font-family="sans-serif" font-size="14" lengthAdjust="spacing" textLength="237" x="27" y="103.3496">EnemyKillEvent(_killedEnemy:Enemy)</text><rect fill="#F24D5C" height="6" style="stroke:#C82930;stroke-width:1.0;" width="6" x="15" y="114.6738"/><text fill="#000000" font-family="sans-serif" font-size="14" lengthAdjust="spacing" textLength="115" x="27" y="121.9707">GameLoseEvent()</text><rect fill="#F24D5C" height="6" style="stroke:#C82930;stroke-width:1.0;" width="6" x="15" y="133.2949"/><text fill="#000000" font-family="sans-serif" font-size="14" lengthAdjust="spacing" textLength="233" x="27" y="140.5918">GameStartEvent(_gameTimer:Timer)</text><rect fill="#F24D5C" height="6" style="stroke:#C82930;stroke-width:1.0;" width="6" x="15" y="151.916"/><text fill="#000000" font-family="sans-serif" font-size="14" lengthAdjust="spacing" textLength="240" x="27" y="159.2129">GameWinEvent(_timeRemaining:float)</text><rect fill="#F24D5C" height="6" style="stroke:#C82930;stroke-width:1.0;" width="6" x="15" y="170.5371"/><text fill="#000000" font-family="sans-serif" font-size="14" lengthAdjust="spacing" textLength="152" x="27" y="177.834">ObjectPoolResetEvent()</text><rect fill="#F24D5C" height="6" style="stroke:#C82930;stroke-width:1.0;" width="6" x="15" y="189.1582"/><text fill="#000000" font-family="sans-serif" font-size="14" lengthAdjust="spacing" textLength="345" x="27" y="196.4551">UpdateableCreatedEvent(_createdObject:IUpdateable)</text></g><!--SRC=[LOzD2i8m48NtdY9Bk_02sKaf8WfALLpAj1rhD9b8CoeYtjqaRTLcCMJU- -QlrE2SoEv8xCHh9FoRYAdM6Q5Hw1PAQwoYFKuwDrZFrDw8qnDGtTi7maTKfI8UiA59nrpQVa6LCVRW30mkhSFXgA1k61hkockVRvN1HiRuZ-qLTH1xAqS3YXJLygWjVDTP5MSiUMsjpj4X3uVjhXKmGg4nRT3_-hlADcjhvVo79QFt1m00]--></g></svg>